PathFileType	4	(X/Y/Z)	/tmp/tmpyk0b9w69//results/MarkerData/Run_5.trc
DataRate	CameraRate	NumFrames	NumMarkers	Units	OrigDataRate	OrigDataStartFrame	OrigNumFrames
120.005	120.005	9	42	m	120.005	164	656
Frame#	Time	C7			CLAV			LACR			LASI			LCAL			LFAradius			LFAsuperior			LFAulna			LLEL			LMEL			LMT5			LPSI			LTB1			LTB2			LTB3			LTH1			LTH2			LTH3			LTOE			LUA1			LUA2			LUA3			RACR			RASI			RCAL			RFAradius			RFAsuperior			RFAulna			RLEL			RMEL			RMT5			RPSI			RTB1			RTB2			RTB3			RTH1			RTH2			RTH3			RTOE			RUA1			RUA2			RUA3		
		X1	Y1	Z1	X2	Y2	Z2	X3	Y3	Z3	X4	Y4	Z4	X5	Y5	Z5	X6	Y6	Z6	X7	Y7	Z7	X8	Y8	Z8	X9	Y9	Z9	X10	Y10	Z10	X11	Y11	Z11	X12	Y12	Z12	X13	Y13	Z13	X14	Y14	Z14	X15	Y15	Z15	X16	Y16	Z16	X17	Y17	Z17	X18	Y18	Z18	X19	Y19	Z19	X20	Y20	Z20	X21	Y21	Z21	X22	Y22	Z22	X23	Y23	Z23	X24	Y24	Z24	X25	Y25	Z25	X26	Y26	Z26	X27	Y27	Z27	X28	Y28	Z28	X29	Y29	Z29	X30	Y30	Z30	X31	Y31	Z31	X32	Y32	Z32	X33	Y33	Z33	X34	Y34	Z34	X35	Y35	Z35	X36	Y36	Z36	X37	Y37	Z37	X38	Y38	Z38	X39	Y39	Z39	X40	Y40	Z40	X41	Y41	Z41	X42	Y42	Z42

165	1.39167	1.10375	1.53957	-0.352968	1.20184	1.461	-0.283444	1.19033	1.51564	-0.501466	1.1678	0.994984	-0.428051	0.538445	0.315339	-0.375965	1.28336	1.39483	-0.452518	1.24519	1.27155	-0.590857	1.33356	1.35219	-0.438798	1.18522	1.21727	-0.62522	1.13065	1.19766	-0.574423	0.564416	0.103148	-0.392248	1.00876	1.07245	-0.397175	0.822392	0.443612	-0.382942	0.732216	0.393163	-0.436167	0.684172	0.303289	-0.368591	1.03581	0.852524	-0.498707	1.04283	0.736116	-0.461379	0.910197	0.673612	-0.444781	0.5975	0.133426	-0.292518	1.19227	1.43865	-0.559077	1.13802	1.37474	-0.564753	1.21219	1.33787	-0.584295	1.09315	1.50762	-0.16018	1.14916	1.04127	-0.204426	1.1973	0.256047	-0.275099	0.890482	1.08509	-0.0315112	0.870374	1.26494	-0.0848633	0.834178	1.07472	-0.0693013	0.845358	1.33502	-0.142645	0.863364	1.31722	-0.203756	1.3734	0.159149	-0.19026	0.992628	1.08134	-0.301229	1.4068	0.54348	-0.236564	1.33951	0.496339	-0.176474	1.3463	0.368954	-0.240848	1.14968	0.924439	-0.14247	1.29742	0.846593	-0.166219	1.30292	0.741438	-0.180976	1.40058	0.199333	-0.289232	1.03324	1.46135	-0.124286	1.00401	1.37927	-0.126947	0.930212	1.41197	-0.159983
166	1.4	1.10498	1.54158	-0.352562	1.20225	1.46276	-0.282067	1.19327	1.51896	-0.499803	1.1693	0.99731	-0.427784	0.524591	0.337511	-0.383495	1.27913	1.40224	-0.452266	1.24926	1.2757	-0.59026	1.33021	1.36118	-0.436291	1.19011	1.2206	-0.624824	1.13444	1.20108	-0.575245	0.538358	0.123444	-0.391052	1.01144	1.0771	-0.400312	0.813721	0.451098	-0.380122	0.723863	0.403661	-0.436022	0.667898	0.317934	-0.368958	1.03588	0.857419	-0.500071	1.04176	0.740735	-0.46162	0.908945	0.679489	-0.443233	0.568925	0.155331	-0.291799	1.19611	1.44279	-0.557761	1.14184	1.37795	-0.563571	1.21649	1.34166	-0.584172	1.0919	1.50841	-0.159982	1.15104	1.04438	-0.207362	1.23337	0.234668	-0.276879	0.887959	1.09033	-0.034658	0.866126	1.27009	-0.0881238	0.831509	1.07943	-0.0719814	0.842174	1.33961	-0.146168	0.860081	1.32245	-0.207056	1.41851	0.152583	-0.194791	0.995528	1.08603	-0.305078	1.41291	0.541054	-0.237505	1.35207	0.487645	-0.176976	1.37046	0.361667	-0.243044	1.14769	0.923887	-0.144592	1.29353	0.842361	-0.167934	1.29745	0.737316	-0.183218	1.44103	0.197393	-0.293372	1.03151	1.46388	-0.125341	1.00134	1.38176	-0.12859	0.927778	1.41644	-0.161782
167	1.40833	1.10624	1.54311	-0.351815	1.20294	1.46399	-0.280831	1.19623	1.5211	-0.498881	1.17049	1.00018	-0.427824	0.511044	0.360279	-0.391241	1.2763	1.40592	-0.451456	1.25235	1.27797	-0.589809	1.32816	1.36601	-0.433779	1.19337	1.22306	-0.624851	1.1367	1.20392	-0.576393	0.513387	0.145784	-0.38934	1.01303	1.08086	-0.402296	0.806336	0.45695	-0.377221	0.716342	0.413542	-0.435538	0.652336	0.33316	-0.369195	1.03655	0.86211	-0.500748	1.04339	0.743801	-0.460811	0.911304	0.681654	-0.442751	0.541425	0.180386	-0.290369	1.19948	1.44501	-0.557024	1.14495	1.37958	-0.562989	1.22	1.34406	-0.584397	1.09116	1.50857	-0.159472	1.1524	1.04606	-0.209262	1.26786	0.216607	-0.279911	0.886142	1.09441	-0.0380362	0.862648	1.2741	-0.0912519	0.829465	1.08303	-0.0749056	0.839727	1.34315	-0.149492	0.857411	1.32659	-0.210129	1.45957	0.147475	-0.199608	0.997921	1.08949	-0.307466	1.41678	0.537046	-0.238369	1.36273	0.478475	-0.177871	1.39233	0.355128	-0.245754	1.14462	0.919958	-0.146343	1.28952	0.836479	-0.169464	1.29209	0.731599	-0.184204	1.47783	0.196668	-0.297291	1.03042	1.46516	-0.126027	0.999396	1.38302	-0.130187	0.925947	1.41991	-0.163231
168	1.41667	1.10752	1.54422	-0.350659	1.2038	1.46487	-0.279665	1.19917	1.52218	-0.49853	1.17165	1.00337	-0.428113	0.499306	0.384084	-0.398539	1.27532	1.406	-0.4496	1.25425	1.27854	-0.589348	1.32769	1.36654	-0.431243	1.19483	1.22479	-0.625239	1.13727	1.20634	-0.577858	0.489369	0.170293	-0.387232	1.01383	1.08351	-0.403025	0.800372	0.461916	-0.374706	0.70974	0.423354	-0.435175	0.638253	0.349113	-0.369578	1.03828	0.865739	-0.500795	1.04751	0.744851	-0.458498	0.91657	0.680407	-0.442934	0.516193	0.207843	-0.288887	1.20237	1.44537	-0.556692	1.14719	1.3802	-0.563176	1.22259	1.34531	-0.584758	1.091	1.50827	-0.158688	1.15282	1.04599	-0.209229	1.29941	0.202087	-0.283962	0.885026	1.09723	-0.0415621	0.860219	1.27689	-0.0942591	0.828154	1.0854	-0.0781481	0.838151	1.34565	-0.15258	0.855676	1.32963	-0.212941	1.49553	0.143537	-0.204919	0.999381	1.09124	-0.307936	1.41841	0.53168	-0.239607	1.37106	0.469028	-0.179239	1.41121	0.349253	-0.248697	1.1409	0.914116	-0.147592	1.28556	0.829295	-0.170493	1.28676	0.724435	-0.184152	1.51018	0.196981	-0.300757	1.02995	1.46536	-0.126229	0.998279	1.38327	-0.131576	0.92493	1.42232	-0.164372
169	1.425	1.10885	1.54494	-0.349137	1.20474	1.46536	-0.278569	1.20196	1.52235	-0.49844	1.17292	1.00648	-0.428652	0.490597	0.40926	-0.40459	1.27631	1.40282	-0.446611	1.2548	1.27761	-0.588843	1.32864	1.36279	-0.428652	1.19437	1.22596	-0.625894	1.13602	1.20852	-0.579572	0.46628	0.197276	-0.385094	1.01419	1.08496	-0.40272	0.796311	0.466307	-0.372963	0.704538	0.433507	-0.435262	0.626416	0.365768	-0.370344	1.04148	0.867276	-0.500313	1.05347	0.744033	-0.454871	0.923836	0.676501	-0.44327	0.494327	0.236809	-0.287981	1.20472	1.44427	-0.556551	1.1485	1.38044	-0.563947	1.22416	1.34563	-0.585034	1.09149	1.50762	-0.157679	1.15242	1.04431	-0.207605	1.32663	0.190974	-0.288699	0.884636	1.09865	-0.045225	0.859085	1.27836	-0.0971606	0.827685	1.08644	-0.0817373	0.837526	1.34713	-0.155343	0.855097	1.33158	-0.215451	1.52538	0.140592	-0.210874	0.999833	1.09115	-0.306675	1.41805	0.525408	-0.241277	1.37659	0.45967	-0.181102	1.42638	0.343986	-0.251521	1.13697	0.907777	-0.148239	1.28148	0.820926	-0.170756	1.28114	0.715959	-0.183585	1.53721	0.198124	-0.303816	1.03008	1.46473	-0.125864	0.99802	1.38276	-0.132623	0.924862	1.42361	-0.165222
170	1.43333	1.11024	1.54521	-0.347396	1.2057	1.46528	-0.277583	1.20451	1.52174	-0.498266	1.17432	1.00899	-0.42947	0.485659	0.435885	-0.408794	1.27911	1.39678	-0.442842	1.2539	1.27531	-0.588355	1.33042	1.3549	-0.426045	1.19193	1.2267	-0.626721	1.13284	1.21061	-0.581377	0.444517	0.227025	-0.383551	1.01442	1.08524	-0.401833	0.794677	0.469826	-0.372309	0.701289	0.444118	-0.435874	0.617388	0.382885	-0.371666	1.04621	0.866136	-0.499401	1.06044	0.741957	-0.450745	0.932362	0.670812	-0.443633	0.476529	0.266449	-0.288084	1.20644	1.44245	-0.556427	1.14894	1.38075	-0.5649	1.22466	1.34511	-0.585035	1.09262	1.50662	-0.156496	1.15179	1.04164	-0.205813	1.34828	0.182751	-0.293872	0.885031	1.09857	-0.0490233	0.859388	1.2784	-0.0999535	0.828173	1.08608	-0.0856544	0.837865	1.34758	-0.157647	0.85573	1.33247	-0.217616	1.54829	0.138237	-0.217283	0.99961	1.08951	-0.304531	1.41604	0.518743	-0.24297	1.3789	0.450707	-0.183361	1.43733	0.339228	-0.253908	1.13326	0.901785	-0.148287	1.27703	0.811524	-0.170295	1.27493	0.706497	-0.183056	1.55817	0.199556	-0.306751	1.03081	1.4635	-0.124933	0.998563	1.38166	-0.133264	0.92573	1.42375	-0.165771
171	1.44167	1.11169	1.54498	-0.345604	1.20669	1.4644	-0.276724	1.20672	1.52041	-0.497736	1.17581	1.01049	-0.430553	0.484875	0.463728	-0.410979	1.28337	1.38814	-0.438927	1.25153	1.27176	-0.58798	1.33226	1.34316	-0.423627	1.18756	1.22707	-0.627647	1.12781	1.21261	-0.583069	0.425067	0.259596	-0.383304	1.01468	1.08441	-0.40085	0.795694	0.471963	-0.372864	0.700354	0.455074	-0.436871	0.611468	0.400131	-0.373593	1.05213	0.862575	-0.498185	1.06773	0.73928	-0.447214	0.941637	0.664189	-0.444301	0.463025	0.296138	-0.289417	1.20739	1.44061	-0.556182	1.14867	1.38129	-0.565618	1.22402	1.34381	-0.584652	1.09433	1.50519	-0.155185	1.15151	1.03875	-0.205303	1.36352	0.176579	-0.299437	0.886292	1.09691	-0.0528638	0.861088	1.27698	-0.102595	0.829722	1.08427	-0.0898247	0.839103	1.34694	-0.159363	0.857456	1.3323	-0.219365	1.56377	0.135744	-0.223511	0.999169	1.0868	-0.30256	1.41277	0.512047	-0.244114	1.37777	0.442175	-0.185869	1.44383	0.334713	-0.255746	1.13022	0.896364	-0.147866	1.27223	0.801536	-0.169559	1.26819	0.696648	-0.182934	1.57259	0.200349	-0.309782	1.03206	1.46183	-0.123554	0.999765	1.38	-0.133511	0.927379	1.42273	-0.166016
172	1.45	1.11319	1.54412	-0.34386	1.20771	1.46256	-0.275959	1.20853	1.51838	-0.496742	1.17734	1.01073	-0.431805	0.488452	0.492286	-0.411377	1.28857	1.377	-0.435486	1.24775	1.26706	-0.587791	1.33346	1.32801	-0.421764	1.18146	1.22708	-0.628632	1.12122	1.21444	-0.584481	0.409331	0.294632	-0.384861	1.01494	1.08245	-0.400105	0.799151	0.472557	-0.374425	0.701858	0.466181	-0.438044	0.608769	0.417254	-0.376011	1.05858	0.857528	-0.496875	1.07496	0.736367	-0.445174	0.951223	0.657417	-0.44553	0.453705	0.325478	-0.292033	1.2075	1.43911	-0.555718	1.1478	1.38199	-0.565815	1.22215	1.34177	-0.583923	1.09645	1.50317	-0.153786	1.15171	1.03607	-0.206518	1.37195	0.171431	-0.305525	0.888498	1.09371	-0.0565398	0.863934	1.2741	-0.104989	0.832401	1.08099	-0.0941056	0.84109	1.34511	-0.160412	0.860023	1.33105	-0.22059	1.5717	0.13223	-0.228725	0.998762	1.08338	-0.301438	1.4085	0.505401	-0.244465	1.37339	0.433841	-0.188587	1.44596	0.329966	-0.257299	1.12814	0.8914	-0.147187	1.26746	0.791697	-0.169187	1.26142	0.68717	-0.183361	1.58041	0.199461	-0.312773	1.03374	1.45972	-0.121933	1.00143	1.37774	-0.133424	0.929579	1.42057	-0.166
173	1.45833	1.11467	1.54251	-0.342166	1.20877	1.45969	-0.275239	1.20987	1.51559	-0.495372	1.17884	1.00968	-0.433069	0.496492	0.520887	-0.410417	1.29408	1.3633	-0.432893	1.24265	1.26132	-0.587851	1.33353	1.30995	-0.420865	1.17392	1.22664	-0.629658	1.11349	1.21589	-0.585529	0.398673	0.331347	-0.388365	1.01514	1.07934	-0.399746	0.804574	0.47201	-0.376572	0.705814	0.477245	-0.43925	0.609355	0.434151	-0.378678	1.06489	0.852057	-0.495742	1.08199	0.733252	-0.444989	0.960624	0.651086	-0.447141	0.448346	0.354245	-0.295881	1.20677	1.43785	-0.555031	1.14628	1.38256	-0.565376	1.21899	1.33908	-0.583048	1.09881	1.50034	-0.152324	1.15204	1.0336	-0.208723	1.37364	0.166327	-0.312245	0.891695	1.08901	-0.0598316	0.867526	1.26981	-0.106986	0.83621	1.07626	-0.0982919	0.84362	1.34195	-0.160786	0.863095	1.32863	-0.221179	1.57227	0.126797	-0.232429	0.998363	1.07938	-0.301215	1.40335	0.498638	-0.2444	1.36641	0.42544	-0.19164	1.44404	0.324422	-0.259144	1.12705	0.886714	-0.146465	1.26319	0.78276	-0.169578	1.25522	0.678721	-0.184336	1.58194	0.196044	-0.315294	1.03572	1.45705	-0.120262	1.00338	1.37473	-0.133064	0.932107	1.41731	-0.165807
